#!OML:ASF I:\Actors\actors\Patient Classification 2\Patient 1\Session 1\actor1.ASF
:FULLY-SPECIFIED
:DEGREES
266
root -1.24314 18.1418 5.2858 0.541816 2.9021 -2.0731
lowerback 19.709 0.427091 1.36438
upperback 4.46623 1.00776 2.28349
thorax -6.20941 0.483227 1.42499
lowerneck -32.2333 -3.06871 -2.38725
upperneck 4.07441 -3.3976 2.51862
head 6.16733 -1.43572 0.759327
rclavicle 3.97569e-015 -1.82882e-014
rhumerus 34.9074 6.07482 -66.4789
rradius 35.4082
rwrist 17.0909
rhand -12.7521 -25.0848
rfingers 7.12502
rthumb 13.3322 -54.6383
lclavicle 3.97569e-015 -1.82882e-014
lhumerus 39.0583 -4.55747 85.1409
lradius 27.9706
lwrist -17.894
lhand -9.89537 -22.3912
lfingers 7.12502
lthumb 16.0844 6.96128
rfemur 16.8856 -4.92957 18.3143
rtibia -19.7529
rfoot -8.40355 -21.5437
rtoes 1.07024
lfemur 15.1845 -5.67874 -12.7633
ltibia -22.1658
lfoot 6.03798 12.1497
ltoes -15.1656
267
root -1.24382 18.1368 5.30389 0.324862 2.862 -2.14448
lowerback 19.3975 0.413676 1.44646
upperback 4.32121 1.00173 2.28135
thorax -6.19912 0.479316 1.37844
lowerneck -32.4825 -3.254 -2.47382
upperneck 4.67673 -3.63008 2.64977
head 6.41309 -1.53099 0.779523
rclavicle -1.64991e-014 -1.03368e-014
rhumerus 34.8323 6.17522 -66.3037
rradius 35.3943
rwrist 16.7788
rhand -12.8836 -25.2118
rfingers 7.12502
rthumb 13.2054 -54.7735
lclavicle -1.64991e-014 -1.03368e-014
lhumerus 38.9419 -4.56819 85.0812
lradius 27.9571
lwrist -17.639
lhand -9.76272 -22.2961
lfingers 7.12502
lthumb 16.2121 7.04603
rfemur 17.1219 -4.89782 18.3787
rtibia -19.6148
rfoot -8.4922 -21.4467
rtoes 1.03528
lfemur 15.5006 -5.70284 -12.7148
ltibia -22.1561
lfoot 5.93095 12.1948
ltoes -15.1479
268
root -1.24367 18.1302 5.32106 0.0610411 2.8186 -2.19632
lowerback 19.0763 0.386301 1.49508
upperback 4.22433 0.967417 2.26097
thorax -6.13102 0.462194 1.33812
lowerneck -32.6704 -3.40428 -2.48514
upperneck 5.2222 -3.84334 2.74335
head 6.63065 -1.6191 0.778144
rclavicle 4.37326e-015 1.19271e-015
rhumerus 34.7797 6.23931 -66.2791
rradius 35.3874
rwrist 16.6276
rhand -12.6542 -25.2317
rfingers 7.12502
rthumb 13.4265 -54.779
lclavicle 4.37326e-015 1.19271e-015
lhumerus 38.7963 -4.68715 84.7699
lradius 28.0885
lwrist -17.0158
lhand -9.58103 -22.0438
lfingers 7.12502
lthumb 16.3871 7.28398
rfemur 17.4254 -4.88131 18.4056
rtibia -19.5273
rfoot -8.57463 -21.3393
rtoes 1.13366
lfemur 15.8969 -5.76575 -12.6976
ltibia -22.2084
lfoot 5.8714 12.2522
ltoes -15.2151
269
root -1.24297 18.1214 5.33809 -0.233441 2.76002 -2.21449
lowerback 19.0369 0.368591 1.54712
upperback 3.96519 0.955892 2.19614
thorax -6.38706 0.454382 1.24225
lowerneck -32.8129 -3.52744 -2.44897
upperneck 5.89261 -4.03767 2.7812
head 6.88356 -1.7013 0.752006
rclavicle -2.68359e-015 -1.19271e-015
rhumerus 34.3975 6.34982 -66.3542
rradius 35.4926
rwrist 16.3761
rhand -12.4942 -25.2851
rfingers 7.12502
rthumb 13.5808 -54.8222
lclavicle -2.68359e-015 -1.19271e-015
lhumerus 38.3567 -4.92584 84.4176
lradius 28.3402
lwrist -16.2596
lhand -9.34763 -21.7744
lfingers 7.12502
lthumb 16.6118 7.5347
rfemur 17.7798 -4.8326 18.3923
rtibia -19.473
rfoot -8.69831 -21.2667
rtoes 1.02051
lfemur 16.3392 -5.839 -12.7229
ltibia -22.2713
lfoot 5.77622 12.3296
ltoes -15.1043
270
root -1.24227 18.1131 5.35635 -0.517733 2.68668 -2.24225
lowerback 18.8293 0.358742 1.63497
upperback 3.80958 0.95322 2.12784
thorax -6.44105 0.450815 1.12047
lowerneck -33.0961 -3.68791 -2.48216
upperneck 6.57608 -4.25739 2.86378
head 7.16413 -1.79014 0.746184
rclavicle 1.26228e-014 1.39149e-014
rhumerus 34.1149 6.45351 -66.2793
rradius 35.6641
rwrist 15.9874
rhand -12.3175 -25.3997
rfingers 7.12502
rthumb 13.751 -54.9253
lclavicle 1.26228e-014 1.39149e-014
lhumerus 38.0946 -5.20599 84.0521
lradius 28.5509
lwrist -15.4962
lhand -9.09637 -21.6453
lfingers 7.12502
lthumb 16.8537 7.6433
rfemur 18.1536 -4.73569 18.4016
rtibia -19.4614
rfoot -8.80835 -21.2281
rtoes 0.985074
lfemur 16.7736 -5.80713 -12.7266
ltibia -22.3302
lfoot 5.65087 12.3275
ltoes -14.9471
271
root -1.24186 18.1046 5.37348 -0.812294 2.65265 -2.25893
lowerback 18.5748 0.321844 1.50203
upperback 3.70086 0.879812 2.19718
thorax -6.42431 0.418192 1.28868
lowerneck -33.0844 -3.81142 -2.6175
upperneck 7.0494 -4.39131 2.945
head 7.33457 -1.84587 0.771512
rclavicle -1.53064e-014 -1.59028e-014
rhumerus 34.0408 6.81182 -65.9611
rradius 35.8062
rwrist 15.5953
rhand -12.0184 -25.4848
rfingers 7.12502
rthumb 14.0392 -54.9906
lclavicle -1.53064e-014 -1.59028e-014
lhumerus 37.8577 -5.24117 83.7771
lradius 28.7367
lwrist -14.7791
lhand -8.82143 -21.5804
lfingers 7.12502
lthumb 17.1183 7.68546
rfemur 18.5541 -4.65322 18.3982
rtibia -19.4735
rfoot -8.91915 -21.202
rtoes 0.990242
lfemur 17.2035 -5.73157 -12.7375
ltibia -22.3924
lfoot 5.59199 12.2434
ltoes -15.071
272
root -1.24203 18.0948 5.389 -1.13741 2.65677 -2.2358
lowerback 18.5201 0.303588 1.68261
upperback 3.47664 0.886269 2.07329
thorax -6.63168 0.415964 1.05228
lowerneck -33.3994 -4.25813 -3.22804
upperneck 7.9803 -4.86546 3.67105
head 7.75036 -1.99744 1.03516
rclavicle 4.57205e-015 8.34896e-015
rhumerus 33.6105 6.90476 -65.7417
rradius 35.9842
rwrist 15.2914
rhand -11.6765 -25.799
rfingers 7.12502
rthumb 14.3687 -55.2817
lclavicle 4.57205e-015 8.34896e-015
lhumerus 37.4897 -5.78303 83.244
lradius 29.0048
lwrist -13.8741
lhand -8.61176 -21.3652
lfingers 7.12502
lthumb 17.3201 7.88308
rfemur 18.9871 -4.62668 18.341
rtibia -19.4849
rfoot -9.04108 -21.1672
rtoes 0.930484
lfemur 17.6618 -5.72786 -12.8001
ltibia -22.469
lfoot 5.56507 12.2181
ltoes -15.1042
273
root -1.24242 18.0854 5.40617 -1.46348 2.63242 -2.24564
lowerback 18.1647 0.312083 1.65048
upperback 3.45703 0.88239 2.09182
thorax -6.46226 0.415787 1.09215
lowerneck -33.601 -4.62961 -3.79589
upperneck 8.63318 -5.24013 4.28254
head 8.05476 -2.11533 1.2709
rclavicle 2.88238e-015 4.77083e-015
rhumerus 33.3844 7.11887 -65.3602
rradius 36.2864
rwrist 14.7232
rhand -11.4201 -26.2396
rfingers 7.12502
rthumb 14.6157 -55.7046
lclavicle 2.88238e-015 4.77083e-015
lhumerus 37.343 -6.08308 82.8695
lradius 29.2988
lwrist -12.9462
lhand -8.5205 -21.0393
lfingers 7.12502
lthumb 17.408 8.20122
rfemur 19.4258 -4.56957 18.3225
rtibia -19.5082
rfoot -9.19094 -21.1345
rtoes 1.33829
lfemur 18.1489 -5.75813 -12.8325
ltibia -22.5649
lfoot 5.50439 12.2596
ltoes -14.978
274
root -1.24131 18.0761 5.42556 -1.77078 2.57595 -2.31061
lowerback 17.4957 0.302668 1.45325
upperback 3.60231 0.819473 2.23205
thorax -5.9505 0.391852 1.36912
lowerneck -33.2841 -4.57528 -3.31114
upperneck 8.55581 -5.27168 3.65689
head 7.95087 -2.19051 0.975826
rclavicle -8.74653e-015 3.97569e-016
rhumerus 33.3793 7.50019 -64.9729
rradius 36.6019
rwrist 13.9665
rhand -11.232 -26.4156
rfingers 7.12502
rthumb 14.7969 -55.8674
lclavicle -8.74653e-015 3.97569e-016
lhumerus 37.3078 -6.08215 82.5778
lradius 29.6208
lwrist -12.0336
lhand -8.35698 -20.8135
lfingers 7.12502
lthumb 17.5653 8.41297
rfemur 19.8659 -4.46764 18.3712
rtibia -19.5862
rfoot -9.29301 -21.1433
rtoes 1.80562
lfemur 18.6271 -5.79204 -12.8116
ltibia -22.661
lfoot 5.43977 12.3025
ltoes -15.1327
275
root -1.22738 18.0654 5.44128 -2.07532 2.54054 -2.33449
lowerback 17.5114 0.215148 1.79511
upperback 3.2414 0.766491 2.07553
thorax -6.33808 0.357012 1.02083
lowerneck -33.3221 -5.04696 -4.00671
upperneck 9.58033 -5.81655 4.60556
head 8.40222 -2.35041 1.31184
rclavicle -3.67752e-015 -2.38542e-015
rhumerus 32.5506 8.00953 -64.8768
rradius 36.8952
rwrist 13.2221
rhand -11.1113 -26.5458
rfingers 7.12502
rthumb 14.9132 -55.989
lclavicle -3.67752e-015 -2.38542e-015
lhumerus 36.4992 -6.725 81.7621
lradius 30.1297
lwrist -10.7851
lhand -8.17044 -20.7427
lfingers 7.12502
lthumb 17.7448 8.46764
rfemur 20.3285 -4.61285 18.2934
rtibia -19.6998
rfoot -9.11619 -21.0139
rtoes 1.47591
lfemur 19.1022 -5.84662 -12.8827
ltibia -22.7372
lfoot 5.36512 12.3267
ltoes -15.3724
276
root -1.20153 18.0531 5.4508 -2.33324 2.55129 -2.13972
lowerback 17.2815 0.0785543 1.94456
upperback 3.00749 0.60124 1.90829
thorax -6.45989 0.271106 0.795552
lowerneck -32.9929 -5.27277 -4.13839
upperneck 10.1561 -6.13959 4.7977
head 8.58564 -2.48316 1.34513
rclavicle -6.36111e-015 -2.18663e-014
rhumerus 32.0508 8.70672 -64.6122
rradius 37.1211
rwrist 12.601
rhand -10.883 -26.7346
rfingers 7.12502
rthumb 15.1332 -56.1613
lclavicle -6.36111e-015 -2.18663e-014
lhumerus 35.7648 -7.41391 80.6721
lradius 30.8136
lwrist -9.30199
lhand -8.09897 -20.7596
lfingers 7.12502
lthumb 17.8136 8.44449
rfemur 20.7438 -5.06566 17.8685
rtibia -19.7739
rfoot -8.7644 -20.6615
rtoes 0.824916
lfemur 19.527 -5.9096 -13.2403
ltibia -22.8107
lfoot 5.30586 12.344
ltoes -15.4048
277
root -1.19823 18.0432 5.46967 -2.60431 2.48334 -1.97464
lowerback 16.7841 0.037119 1.66478
upperback 2.90143 0.480479 1.86753
thorax -6.30525 0.218298 0.937462
lowerneck -32.6301 -5.48091 -4.19121
upperneck 10.7087 -6.46562 4.93225
head 8.75225 -2.62112 1.34579
rclavicle 8.94531e-015 1.98785e-014
rhumerus 31.6666 9.4573 -64.2758
rradius 37.3936
rwrist 12.0175
rhand -10.4953 -26.9375
rfingers 7.12502
rthumb 15.5066 -56.3357
lclavicle 8.94531e-015 1.98785e-014
lhumerus 35.0794 -8.24975 79.3866
lradius 31.6999
lwrist -7.46849
lhand -7.95666 -20.6636
lfingers 7.12502
lthumb 17.9505 8.52802
rfemur 21.1423 -5.08409 17.6269
rtibia -19.8059
rfoot -8.74878 -20.5634
rtoes 0.72035
lfemur 19.9664 -5.87282 -13.4746
ltibia -22.8874
lfoot 5.23424 12.3695
ltoes -15.3386
278
root -1.21954 18.0358 5.50127 -3.00673 2.31362 -2.1905
lowerback 15.9849 0.075118 1.21588
upperback 3.06272 0.444899 2.14019
thorax -5.70415 0.213056 1.48663
lowerneck -32.0469 -5.70121 -4.18661
upperneck 10.7692 -6.77791 4.86035
head 8.70013 -2.78533 1.27371
rclavicle 3.97569e-016 3.18055e-015
rhumerus 31.5535 10.2989 -63.6666
rradius 37.785
rwrist 10.9912
rhand -10.3368 -27.1643
rfingers 7.12502
rthumb 15.6593 -56.5506
lclavicle 3.97569e-016 3.18055e-015
lhumerus 34.5557 -9.1987 77.9502
lradius 32.8943
lwrist -5.05153
lhand -7.73621 -20.2999
lfingers 7.12502
lthumb 18.1626 8.87211
rfemur 21.6425 -4.51806 18.0126
rtibia -19.8121
rfoot -9.1166 -20.8419
rtoes 0.853499
lfemur 20.5473 -5.71248 -13.18
ltibia -22.9573
lfoot 5.12813 12.3381
ltoes -15.432
279
root -1.22956 18.0271 5.52964 -3.41522 2.19543 -2.40623
lowerback 15.787 0.0908576 1.41249
upperback 2.84988 0.497699 2.12846
thorax -5.82213 0.235201 1.35237
lowerneck -31.5438 -6.19635 -4.37801
upperneck 11.2203 -7.43981 5.02168
head 8.83054 -3.08628 1.2514
rclavicle -9.79014e-015 3.97569e-015
rhumerus 30.62 10.9329 -63.4204
rradius 38.3245
rwrist 9.87773
rhand -10.4294 -27.2949
rfingers 7.12502
rthumb 15.5701 -56.6882
lclavicle -9.79014e-015 3.97569e-015
lhumerus 33.5434 -11.0614 76.0355
lradius 34.4288
lwrist -2.09884
lhand -7.6716 -19.8333
lfingers 7.12502
lthumb 18.2248 9.33296
rfemur 22.1317 -4.16736 18.3242
rtibia -19.7537
rfoot -9.35974 -20.9653
rtoes 0.649516
lfemur 21.1389 -5.59637 -12.9234
ltibia -23.0362
lfoot 5.01405 12.2781
ltoes -15.4315
